<?xml version="1.0" encoding="UTF-8"?>
<svg id="Layer_1" xmlns="http://www.w3.org/2000/svg" version="1.1" viewBox="0 0 1455 550">
  <!-- Generator: Adobe Illustrator 30.3.0, SVG Export Plug-In . SVG Version: 2.1.3 Build 182)  -->
  <defs>
    <style>
      .st0 {
        fill: #fff;
      }
    </style>
  </defs>
  <path class="st0" d="M240.4,370.7c-16.7,2.9-32,4.8-48.7,4.8l-183.9.4-.5-9.6c9-.2,16.8.3,25.5-1.5,9.3-1.9,18.4-8,21.7-17.2s3.9-18,3.9-27.8V76.2c0-10-1.3-19.6-5.4-28.2-6.8-14.3-28.5-15.8-45.6-15v-9.6c0,0,156.4,0,156.4,0,37,0,77.7,3.9,107.7,24.9s35.2,38.3,36.5,64.6-10.9,52.4-33.1,68.1-18.8,10.6-29.7,14.7c11.8,3.3,21.8,6.1,32.1,10.7,32.6,14.7,51.5,47.8,46.4,83.7-3.2,22.3-14.6,42.2-31.7,57s-32.2,20.2-51.7,23.6ZM236.5,161.9c16.5-18.8,21.8-44.9,13.8-68.2-7.1-20.6-23.2-35.7-43-44-29.5-11.7-67.9-11-99-3.2v135.4c15.8,2.8,31.5,3.5,47.6,3.6,14.7,0,28.6-.7,43-3.3,14.1-3.4,27.4-8.8,37.5-20.3ZM228,344.4c15.2-9.2,27.3-21.7,32.8-38.7,9.1-28.1,0-59.9-22.6-78.6-9.7-8-20.3-12.4-31.8-16.6-30.7-9.1-65.3-7.8-98-5v144.8c25.6,5.9,52.2,8.4,78.8,6,14.6-1.4,27.6-5,40.8-11.9Z"/>
  <path class="st0" d="M637.4,213.1c-4.3-10.5-13.1-17.6-24.1-18.5l-19.4-1.5v-9.7c0,0,136.1,0,136.1,0l.2,9.5-16.6,1.6c-11.1,1.1-18.7,10.6-20.8,21.3l-2,24.3v112.5c-41.9,22.8-82.9,32.5-130.5,31.2-51.9-1.4-99.3-15.2-136.5-52.4-32.5-32.5-50.6-75.2-51.6-121.4-.7-31.1,5.7-60.6,19.5-88.4,11.3-22.9,25.5-43.5,44.4-60.6,19.5-17.7,41.2-31.1,66.7-38.2,31-8.6,63.4-10,94.9-3.4,13.8,2.9,26.2,8.3,39.5,12.4l17.8,5.5c5.6,1.8,11.9-1.9,12.9-7.6l2.7-14.4h9.6s9,111.1,9,111.1l-9,.2c-4.7-13.9-10.1-26.5-17.5-39.3-15.9-27.3-42.1-45.9-73.4-51.5-43-7.6-87.8,2.7-116.9,36.5-18.1,20.9-29.6,46.1-35.4,73.5-12.8,60.6-1.9,128.8,37.9,177.4,44.1,48.6,108,55.2,165.2,23.5v-108.7c0-8.5-1.2-16.3-2.6-25Z"/>
  <path class="st0" d="M981.3,257.7h-136.5s-25,58.1-25,58.1c-4.1,9.5-7.1,18.8-7.9,29.2,3.4,18.6,22.9,19.3,40.9,21.3v9.5s-110.7,0-110.7,0v-9.6c-.1,0,20-5.4,20-5.4,13-3.5,27.2-30.9,33.5-45.7L923.6,15.7l9.4-.2,124.3,297,15,29.3c7.9,15.3,25.8,23.8,43.8,24.4v9.7c-.1,0-138.8,0-138.8,0v-9.5c17.6-1.3,34.4-3.9,35.8-22.2-1.2-10.4-4.2-19.6-7.9-29.3l-23.9-57.1ZM974,238.5l-59.8-142.3-61.4,142.3h121.2Z"/>
  <path class="st0" d="M1270,256.9c-33.9-5.2-58.7-34-58.5-68.9,0-17.3,6.1-33.3,17.6-45.8,11.1-12.1,24.5-19.9,40.8-22.2,22.7-3.2,44.4,3.7,60.1,19.6s22.7,37.7,19,60.4c-6.1,37.6-41.3,62.6-79,56.9Z"/>
  <path class="st0" d="M1188.2,384.3c-30.9-5.5-54-31.4-56.3-62.2s3.8-36.5,15.8-50.4c10.9-12.7,24.8-21.2,41.3-23.8s44.8,3.1,60.7,18.9,23.4,38.1,19.5,61.2c-6.4,37.9-42.2,63.2-80.9,56.3Z"/>
  <path class="st0" d="M1369.5,384c-23.8,4.8-46.3-2.2-62.7-18.1-16.4-15.9-23.8-38.4-19.7-61.9,6.8-39.7,45.8-64.6,85.2-55,31.5,7.7,52.8,36.5,52.3,68.5-.5,31.5-22.7,60-55,66.5Z"/>
  <path class="st0" d="M64.3,511.7l-58,.4c0-1.4,0-2.6.7-2.6l3.3-.2c2.3-.1,6.1-1.3,7.8-2.8s2.7-5.2,2.7-7.8v-72.4c0-2.5-1.3-6.5-2.9-7.7s-5.8-2.3-8.6-2.7l-2.9-.4c-.6,0,.7-2.2,1-2.3h48.2c8,.9,15.6,1.8,22.6,5.6,11.7,6.4,16.6,20.9,9.3,32.4s-8.7,7.8-13.9,10.5c10,2.1,17.7,7.4,20.4,15.2s.7,18.8-6.3,25.6c-5.9,5.7-14.1,9.1-23.2,9.1ZM62,457.3c8.7-2.2,13.2-10.1,13.4-17.8s-4.5-14.6-11.9-18.1c-8.8-4.1-18.8-3.7-28.7-1.5v37.9c9.3,1.2,18.1,1.8,27.2-.5ZM78.2,487.5c.3-8.7-4.2-16.6-12.6-20.2-9.7-4.1-20.5-3.7-30.9-2.9v40.5c19.7,5,42.8,1.1,43.5-17.4Z"/>
  <path class="st0" d="M560.1,471.4c0-6.5-3.8-10.6-10.3-10.1l-2.2-.3c-.4,0-.5-1-.5-1.4,0-.6,1.4-1.6,2-1.6h33.7s2.3.3,2.3.3c.5,0,.7,2,.2,2.1l-2.2.8c-5.2-.2-8.5,3.6-8.5,8.7v35.5c-14.3,8.1-30,10.2-46.1,8.1-24-3.1-42.1-22.2-43.2-46.8s11.6-42.8,31.6-51.6c23.8-10.4,44.2,3.1,49.3,2s1.9-2.4,2.2-3.5l.5-2.2c.1-.6,1.9-.1,2.5,0l2.5,30.3c-.5.1-2.2.5-2.4.1l-1.3-2.3c-4.6-15.7-18.5-25.1-34.7-23-11.8.5-21.6,7.2-27.2,17.9-8.7,16.5-8.2,36.5-.4,53.4s33,27.5,52.2,15.9v-32.4Z"/>
  <path class="st0" d="M1036.1,505.9c-14.9-16-10.7-43.1,6.1-56.5,9.4-7.6,21.9-7.8,31.7-.9l-.3-24.5c0-1.4-1.2-4.1-2.2-4.8s-4-.8-5.4-.6l-2.3.4c-.4,0-.6-1.6-.6-2.4l15.4-6.4c2.4-1,5.1-1.5,7.5-1.3v89.1c0,1.6,1.3,4.6,2.3,5.5,3,2.7,9-1.1,8.7,1s-.8,2-1.4,2.2l-20.8,8.4-.9-10.4c-11.1,12-26.6,12.9-37.5,1.1ZM1055.5,505.1c5.9,2.6,15.6-.4,18-6.3v-34.4c0-7.6-5.6-14.5-12.6-16.1-14.6-3.4-23.5,16.5-19.6,37.4,1.5,8.2,5.8,15.6,14.2,19.3Z"/>
  <path class="st0" d="M772.9,475.6c.4,18.8-11.7,35.2-29.9,38.2s-20.1-2.4-28.5-8.4v-80.5c0-1.7-1.1-4.8-2.2-5.6s-4-1.1-5.4-.8l-2.4.5c-.5.1-.9-2.3-.5-2.5l15.1-6.3c2.8-1.2,5.2-1.5,7.4-1.4v47.5c0,0,9.1-8.7,9.1-8.7,8.5-6.5,19.7-4.8,27.4,2.4,7,6.5,9.6,15.2,9.8,25.6ZM745,508.3c13.7-3.4,17.3-22.7,14.2-37.6-1.5-7.2-6.5-14.1-13.6-16.2s-14.5,1.7-19.1,7.5v38.9c4.2,4.9,11,9.2,18.4,7.4Z"/>
  <path class="st0" d="M982.8,479.2h-38.5c0,0-8.2,19.3-8.2,19.3-.8,1.8-1.1,5.5-.2,7s4.7,3.3,6.8,3.6l3.3.4c.6,0,.7,1.4.7,2.7l-31.7-.2c.8-2.7,2.3-3.2,4.6-3.4,4.5-1.7,7.4-5.9,9.5-10.6l38.7-88.7,38.4,90.2c2.5,5.8,7.4,9.5,13.6,9.6l.4,2.9h-38.4c-.1-.2-.8-2.1-.3-2.3l2.7-.7c1.8-.5,4.3-1.3,5.5-2.1s2-5.2,1.3-7l-8.3-20.9ZM980.6,473.7l-16.7-39.7-17.2,39.8h34Z"/>
  <path class="st0" d="M812,509c-6,4.5-14.4,6.2-21.1,2.1s-7.7-9.6-7.4-15.4c.6-15.6,21.3-21.5,36.9-27.8.4-4.6,0-10.2-1.9-14.5s-7.3-5.6-11.3-5.4c-13.1.7-6.2,14.5-11.4,18.1s-5.5,1.2-7.3,0-2.9-4.8-2.4-7.1c2.5-13.6,19.4-18,34.8-14,7.2,1.8,11.5,7.6,11.6,15l.3,40c0,.8.6,3.3,1.4,3.5s3.1.2,4.3,0l5.9-4.6c-1,9.5-14.9,17.8-20.5,12.9-2-1.8-2.8-5.3-3.3-9.3l-8.5,6.4ZM811.5,503.7l9.2-5.8-.2-25.5c-12.8,5-26.3,10-24.6,22.7.4,3.4,2.7,6.8,5.2,8.4s7.6,1.9,10.4.1Z"/>
  <path class="st0" d="M136.3,509.4c-5.9,4.3-14.1,5.7-20.4,1.8s-7.8-9.4-7.5-15.5c.7-15.9,22.1-21.6,37.3-28l-.8-9.7c-.5-6.2-5.6-10.1-11.9-10s-6.1,1.3-7.5,2.9c-4.5,5,.8,15.6-7.8,16.3-3.8.3-6.8-3-6.6-7.4.9-14.3,22.2-20.6,38.5-13.4,5.2,2.3,7.6,7.9,7.8,13.4v39.2c.1,0,1.7,4.4,1.7,4.4.3,1,3.5.3,4.3-.1l5.8-4.3c-2.1,12-18.7,17.8-21.6,11.8s-1.6-4.9-2.3-8.2l-9,6.7ZM145.5,496.7v-24.3c-13.5,5.1-26.3,10.2-24.5,23s3.3,8.5,8.4,9.2,13.2-3.3,16.1-8Z"/>
  <path class="st0" d="M690.7,455.3c15.4,19.1,5.8,50.9-15.1,57.3s-22.1,1.3-29.9-6.1c-12.2-11.6-14.5-28.6-7.9-43.6s13.3-17.4,23.1-18.9c12-1.8,22.6,2.2,29.8,11.3ZM679.1,458.1c-2.6-4.9-6.9-8.3-11.4-9.4s-10.5.2-13.9,4-5.8,12.3-5.9,19.3c-.4,19.2,7.7,40.1,24.2,36.6,16.1-3.5,15.9-33.9,7.1-50.4Z"/>
  <path class="st0" d="M1331.7,455.3c14.7,18.3,6.3,48-11.7,55.9-9.8,4.3-20.5,4.2-28.9-1.3-15.8-10.3-19.9-30.2-12.4-46.9,4.6-10.3,13.3-17.4,23.2-18.9,11.9-1.8,22.5,2.2,29.8,11.2ZM1320.1,458.1c-2.6-5-6.9-8.4-11.5-9.4s-10.5.2-13.9,4-5.8,12.3-5.9,19.3c-.4,19.2,7.8,40.1,24.1,36.6s15.9-33.9,7.1-50.4Z"/>
  <path class="st0" d="M441,448.1c-2.3.5-6.1,3-7.2,5.7l-29.5,72.2c-3.7,9-10.7,16.3-20.1,18.1-6,1.1-12.2-2.9-11.6-8.8s7.3-7.2,12-4.8,9.8,2.2,12.1-2.9l8.2-18-25-52.4c-2.5-5.2-6.2-6.8-12.1-11.3l32.6-.5-1.7,2.8c-2.8.4-5,1.1-5.8,2.2s-1,5-.2,6.6l18,37.5,16.1-39.8-.5-4.5c-.2-2-6.5-1.9-6.2-2.8l.7-2.1h19.9c.7,0,1.1,2.5.3,2.7Z"/>
  <path class="st0" d="M313.1,486.2c.8,10.9-7.2,21.8-16.9,25.9-14.8,6.3-30.8-2.7-36.1-17.5s-3.4-21.6.4-32c6-16.2,24.5-24,40-16.3,9,4.5,13.5,13.6,13.3,24.1h-45.8c-.4,10.9,3.1,20.7,11.2,27.1s12.5,5.4,19.9,3.4,8.8-8.1,14-14.8ZM298.5,466.3c.5-6.4-2.1-13.2-7.6-15.9-6.2-3-13.5-1.9-17.9,3.6s-4.1,7.4-5,12.3h30.5Z"/>
  <path class="st0" d="M1220.2,513.3v-23.9c1.3-.2,2.9,1.2,3.1,2.3,2.1,10.1,9.3,17.9,19.5,18.1,4.6.1,9.1-2.6,10.6-6s1.1-10.6-3.3-13.2l-19.4-11.3c-7-4.1-11.3-10-10.8-17.8.5-7.4,4.9-14.2,12.8-16.8,13.2-4.3,20.1,5.9,27.4-2l-.2,24.5c-3.2-3.3-3.4-5.4-4.5-8.4-2.7-7.5-9.4-11.4-17.5-10.7s-8.1,3.4-9,6.7.7,9.2,4.4,11.2l19.5,10.3c7.2,3.8,12.2,9.9,12.5,17.4s-4.2,14.5-11.6,18.2c-14,6.9-24.6-3.6-33.4,1.5Z"/>
  <path class="st0" d="M1436.9,511.1c-14.8,8.4-26.4-3.5-34.7,2.6v-24.1c1.1-.2,1.7-.4,1.9,0l1.3,2.3c2,10,9.3,17.7,19.5,18.1,5,0,9.3-2.2,11-6.6s.7-10-3.7-12.6l-18.8-10.9c-7.3-4.2-11.9-10-11.4-18.2s4.9-14.2,12.7-16.8,12-1.1,17.8.8c3.8,1.3,5.9.2,9.8-2.9v24.1c-2.6-.9-3.4-2.7-3.9-4.9-2.1-9.2-9.1-14.7-18.6-13.8s-7.7,3.1-8.7,5.9-.1,9.5,3.5,11.5l16.9,9.1,7.9,4.8c5.9,3.6,8.3,10.4,7.8,16.5s-4.4,11.9-10.4,15.3Z"/>
  <path class="st0" d="M849.9,512.1c-.3-.9,1.1-2.9,2-2.9,5,.3,7.7-3.5,7.7-8.2v-77c-.1-1.4-1.3-4.3-2.3-4.9s-4-.8-5.5-.5l-2.3.4c-.4,0-.6-1.4-.8-2.3l16.2-6.7c2-.8,4.7-1.2,6.7-1v92c0,10.6,12.2,6.6,10.8,11.2h-32.6Z"/>
  <path class="st0" d="M594.3,512.2c-.3-.1-1.8-1.4-1.4-1.6,2.7-1.9,10.2-.8,10.2-8.8v-77.5c0-1.6-1.4-4.7-2.6-5.3-2.6-1.4-4.3.4-8.1-.8s.9-1.9,1.6-2.2l21.2-8,.2,93.8c0,8.5,10.6,7.6,10.5,8.2l-.4,2.2h-31.1Z"/>
  <path class="st0" d="M1147.4,445.5h21.7c2.7,4-3.8,1.1-8.1,8.7l-24.2,58.6-2.3,1.7c-.5.4-1.8-1.4-2.1-2l-24.3-57.4c-1.6-3.8-6.2-6.1-10.1-7l.3-2.6h29.9s.9,2.1.9,2.1c.4.8-6.1.4-7.2,3.1s-.5,3.9-.5,5.7l16.8,39.5,16.9-40.9c0-1.3-.1-3.8-.5-4.9s-2.4-1.6-5.3-1.7l-1.9-2.9Z"/>
  <path class="st0" d="M234.6,496.6c0,3.3,2.3,6.8,4.5,7.7,6.5,2.6,9.1-6,12.6-5.5-1.9,6.4-5.7,10.9-11.7,13.4s-9.4.9-12.8-2-4.7-7.4-4.7-12.2l-.2-47.5-11.4-.8c9.9-7.3,17.3-13.6,20.7-25.2l2.9-1v21.7c0,0,15.6.1,15.6.1.1,2.1-.3,4.8-1.3,5h-14.3c0,0,0,46.1,0,46.1Z"/>
  <path class="st0" d="M193.1,496.5c0,3.2,2.2,6.9,4.2,7.8,6.5,2.7,8.7-5,13-5.5-3.1,10.7-13.5,17.4-22.2,12.9s-6.8-6.2-6.9-11l-.3-50.3c-4,0-6.3.1-11.2-.7,10.6-7,16.8-14.6,22.2-27.5,1.9,8.5,1,15,1.1,23.1h15.5c0,.1,0,5.2,0,5.2h-15.5c0-.1,0,46,0,46Z"/>
  <path class="st0" d="M1369.1,500.5c0,10.6,11.9,7,11.7,11.6h-34.5c0-.8-.2-2.2.2-2.3l2.6-.6c4.8-1,8-3.4,8-8.3l-.2-41.2c0-1.5-1.2-4.8-2.4-5.5s-3.9-.8-5.6-.7h-2.9c-.7.1.7-2.3,1.6-2.7l21.1-8.1.7,14.8c3.4-4.9,6.2-9.4,11-12.2,5-3,11.6-2,14.3,3.3s.5,5.9-.8,7.5-5.4,2.5-7.2,1.5l-8.5-4.7c-3.1,2.7-8.7,7.4-8.7,12l-.2,35.5Z"/>
  <path class="st0" d="M342.3,499c-.1,13,14.3,8.5,11,13.2h-33.3c0-.8,0-2.4.3-2.4l2.7-.4c4.1-.7,7-2.9,7-7.3v-42.1c0-1.6-.9-4.8-2-5.5s-4.3-.9-6.2-1h-2.6c-.5,0,.6-2.2,1.3-2.5l21-8.2.9,15c3.7-5.2,6.4-9.3,10.8-12.2,4.4-3,10.3-2.5,13.6,1.5s2.1,6.6.3,8.8-5.9,2.6-9.1,1l-7.2-3.7c-3,3-8.4,7.6-8.4,12.1l-.3,33.8Z"/>
  <path class="st0" d="M1177.2,512.2c-.2,0-1.3-2.2-.8-2.3l2.8-.5c3.6-.6,7.3-2.9,7.3-7.4v-43c-.1-1.3-1.2-4.2-2.2-4.8s-3.8-.8-5.5-.7h-2.9c-.7.1.6-2.5,1.4-2.8l21.3-8,.3,59.3c0,8,9.7,7.4,9.8,7.9l.2,2.2h-31.7Z"/>
  <path class="st0" d="M1189.1,409.6c4-2.2,8.3-.2,10.1,3.5s.2,7.5-3.3,9.3-7.7.8-9.8-3-1.1-7.5,3-9.8Z"/>
</svg>