<?xml version="1.0" encoding="UTF-8"?>
<svg id="Layer_1" xmlns="http://www.w3.org/2000/svg" version="1.1" viewBox="0 0 432 432">
  <!-- Generator: Adobe Illustrator 30.3.0, SVG Export Plug-In . SVG Version: 2.1.3 Build 182)  -->
  <defs>
    <style>
      .st0 {
        fill: #a77a33;
      }
    </style>
  </defs>
  <path class="st0" d="M216,429C98.6,429,3,333.4,3,216S98.6,3,216,3s213,95.6,213,213-95.6,213-213,213ZM216,23C109.6,23,23,109.6,23,216s86.6,193,193,193,193-86.6,193-193S322.4,23,216,23Z"/>
  <g>
    <path class="st0" d="M198.1,320.3h-112.9v-29l69.4-94.3c15.7-21.4,3.6-38.6-13-38.6s-24.1,6.6-24.1,23h-30.4c0-30.6,16.9-54.9,54.5-54.9s74.1,40.2,40.4,86.1l-57.5,75.8h73.6v32h0Z"/>
    <path class="st0" d="M271.5,151.8c0-6.7,0-14.3-.2-20h21.7c.3,2.3.5,7.8.6,11.6,3.6-6.2,11.3-13.8,27.5-13.8s31.6,12,31.6,32.9v48.9h-22.5v-45.5c0-10.4-4.1-19.3-16.6-19.3s-19.8,9.6-19.8,25.3v39.3h-22.3v-59.5h0Z"/>
    <polygon class="st0" points="232.8 108.1 200.7 168.2 220.2 168 233 142.7 246.2 167.8 265.6 167.7 232.8 108.1"/>
  </g>
</svg>